<svg width="182" height="182" viewBox="0 0 182 182" fill="none" xmlns="http://www.w3.org/2000/svg">
<path d="M79.1785 109.633C84.677 100.966 97.3231 100.966 102.822 109.633L120.66 137.75C126.574 147.071 119.878 159.25 108.839 159.25H73.161C62.1223 159.25 55.4258 147.071 61.3395 137.75L79.1785 109.633Z" fill="white"/>
<path d="M72.3674 79.1785C81.0338 84.677 81.0338 97.3231 72.3674 102.821L44.2501 120.66C34.9292 126.574 22.75 119.878 22.75 108.839V73.161C22.75 62.1223 34.9292 55.4258 44.2502 61.3395L72.3674 79.1785Z" fill="white"/>
<path d="M102.821 72.3674C97.323 81.0338 84.6769 81.0338 79.1785 72.3674L61.3395 44.2501C55.4258 34.9292 62.1223 22.75 73.161 22.75L108.839 22.75C119.878 22.75 126.574 34.9292 120.66 44.2502L102.821 72.3674Z" fill="white"/>
<path d="M109.633 102.821C100.966 97.323 100.966 84.6769 109.633 79.1785L137.75 61.3395C147.071 55.4258 159.25 62.1223 159.25 73.161V108.839C159.25 119.878 147.071 126.574 137.75 120.66L109.633 102.821Z" fill="white"/>
</svg>
